# xmcd CD database file
# Copyright (C) 1993-1998 Ti Kan
#
# Track frame offsets:
#  182
#  18267
#  32520
#  47332
#  61030
#  76672
#  91310
#  104867
#  118175
#  132155
#
# Disc length: 1970 seconds
#
# Revision: 1
# Processed by: cddbd v1.4b41PL1 Copyright (c) Steve Scherf et al.
# Submitted via: CDWizzard Release:4.35
#
DISCID=7207b00a
DTITLE=T. Graham Brown - Best Of
DYEAR=1900
DGENRE=
TTITLE0=Don't Go To Stangers
TTITLE1=Hell And High Water
TTITLE2=Darlene
TTITLE3=I Tell It Like It Used To Be
TTITLE4=The Last Resort
TTITLE5=She Couldn't Love Me Anymore
TTITLE6=I Wish That I Could Hurt That Way Again
TTITLE7=Brilliant Conversationlist
TTITLE8=Come As You Were
TTITLE9=The Power Of Love
EXTD=
EXTT0=
EXTT1=
EXTT2=
EXTT3=
EXTT4=
EXTT5=
EXTT6=
EXTT7=
EXTT8=
EXTT9=
PLAYORDER=
